<mxfile host="app.diagrams.net" modified="2024-09-24T05:23:23.022Z" agent="Mozilla/5.0 (Windows NT 10.0; Win64; x64) AppleWebKit/537.36 (KHTML, like Gecko) Chrome/128.0.0.0 Safari/537.36 Edg/128.0.0.0" etag="2bcg8eBZyIkYRi7IPpzk" version="24.4.8" type="device">
  <diagram name="Página-1" id="kDxYJkR4h6RmIId1s9LD">
    <mxGraphModel dx="1042" dy="531" grid="1" gridSize="10" guides="1" tooltips="1" connect="1" arrows="1" fold="1" page="1" pageScale="1" pageWidth="827" pageHeight="1169" math="0" shadow="0">
      <root>
        <mxCell id="0" />
        <mxCell id="1" parent="0" />
        <mxCell id="8eZ5FW9nYyUdj8YFRBQI-1" value="&lt;font face=&quot;Lucida Console&quot;&gt;&lt;b&gt;VISTAS&lt;/b&gt;&lt;br&gt;&lt;br&gt;&lt;br&gt;Administrador&lt;br&gt;&lt;br&gt;Maestro&lt;br&gt;&lt;br&gt;Login&lt;/font&gt;" style="rounded=1;whiteSpace=wrap;html=1;strokeColor=#b85450;fillColor=#f8cecc;" vertex="1" parent="1">
          <mxGeometry x="50" y="40" width="190" height="170" as="geometry" />
        </mxCell>
        <mxCell id="8eZ5FW9nYyUdj8YFRBQI-2" value="&lt;font style=&quot;font-size: 12px;&quot; face=&quot;Lucida Console&quot;&gt;&lt;b style=&quot;&quot;&gt;CONTROLADORES&lt;/b&gt;&lt;br&gt;&lt;br&gt;&lt;br&gt;Autenticación&lt;/font&gt;&lt;div&gt;&lt;font size=&quot;3&quot; face=&quot;GLRZYOdaxsozce1mg1lw&quot;&gt;&lt;br&gt;&lt;/font&gt;&lt;/div&gt;&lt;div&gt;&lt;font size=&quot;3&quot; face=&quot;GLRZYOdaxsozce1mg1lw&quot;&gt;Estudiantes&lt;br&gt;&lt;br&gt;Actividades Extraescolares&lt;br&gt;&lt;br&gt;Asistencia&lt;br&gt;&lt;br&gt;Reportes&lt;/font&gt;&lt;/div&gt;" style="rounded=1;whiteSpace=wrap;html=1;strokeColor=#6c8ebf;fillColor=#dae8fc;" vertex="1" parent="1">
          <mxGeometry x="289" y="210" width="250" height="340" as="geometry" />
        </mxCell>
        <mxCell id="8eZ5FW9nYyUdj8YFRBQI-3" value="&lt;font face=&quot;Lucida Console&quot;&gt;&lt;b&gt;MODELOS&lt;/b&gt;&lt;br&gt;&lt;br&gt;&lt;br&gt;Usuarios&lt;br&gt;&lt;br&gt;Estudiantes&lt;br&gt;&lt;br&gt;Actividades&amp;nbsp;&lt;br&gt;&lt;br&gt;Asistencias&lt;/font&gt;" style="rounded=1;whiteSpace=wrap;html=1;strokeColor=#82b366;fillColor=#d5e8d4;" vertex="1" parent="1">
          <mxGeometry x="620" y="40" width="190" height="170" as="geometry" />
        </mxCell>
        <mxCell id="8eZ5FW9nYyUdj8YFRBQI-5" value="" style="shape=flexArrow;endArrow=classic;html=1;rounded=0;entryX=0.036;entryY=0.962;entryDx=0;entryDy=0;exitX=0.965;exitY=0.037;exitDx=0;exitDy=0;exitPerimeter=0;entryPerimeter=0;fillColor=#f5f5f5;strokeColor=#666666;" edge="1" parent="1" source="8eZ5FW9nYyUdj8YFRBQI-2" target="8eZ5FW9nYyUdj8YFRBQI-3">
          <mxGeometry width="50" height="50" relative="1" as="geometry">
            <mxPoint x="550" y="270" as="sourcePoint" />
            <mxPoint x="600" y="220" as="targetPoint" />
          </mxGeometry>
        </mxCell>
        <mxCell id="8eZ5FW9nYyUdj8YFRBQI-6" value="" style="shape=flexArrow;endArrow=classic;html=1;rounded=0;exitX=0.964;exitY=0.967;exitDx=0;exitDy=0;exitPerimeter=0;entryX=0.045;entryY=0.026;entryDx=0;entryDy=0;entryPerimeter=0;fillColor=#f5f5f5;strokeColor=#666666;" edge="1" parent="1" source="8eZ5FW9nYyUdj8YFRBQI-1" target="8eZ5FW9nYyUdj8YFRBQI-2">
          <mxGeometry width="50" height="50" relative="1" as="geometry">
            <mxPoint x="390" y="300" as="sourcePoint" />
            <mxPoint x="440" y="250" as="targetPoint" />
          </mxGeometry>
        </mxCell>
      </root>
    </mxGraphModel>
  </diagram>
</mxfile>
